<svg width="79" height="78" viewBox="0 0 79 78" fill="none" xmlns="http://www.w3.org/2000/svg">
<g filter="url(#filter0_d_66_6)">
<path d="M7.72936 0.159259C6.27054 -0.353632 4.67215 0.413194 4.15926 1.87201C3.64637 3.33083 4.41319 4.92922 5.87201 5.44211L6.84717 5.78495C9.3395 6.66121 10.9775 7.24191 12.1827 7.83329C13.3147 8.38873 13.8137 8.83832 14.1425 9.3194C14.4795 9.8125 14.7397 10.4898 14.8865 11.8463C15.0401 13.2657 15.0439 15.1144 15.0439 17.8768L15.044 27.5895C15.044 38.571 15.28 42.1952 18.5145 45.6067C21.749 49.0182 26.9548 49.0182 37.3664 49.0182H57.1633C62.9909 49.0182 65.9048 49.0182 67.9645 47.3397C70.0242 45.6613 70.6124 42.8074 71.7888 37.0997L73.6545 28.0477C74.9503 21.5554 75.5983 18.3093 73.9409 16.1549C72.2836 14.0005 66.6211 14.0005 60.3308 14.0005H20.616C20.591 12.9913 20.5436 12.0732 20.4538 11.2436C20.2532 9.39053 19.8186 7.70044 18.7659 6.15996C17.705 4.60745 16.2944 3.61315 14.6494 2.80601C13.111 2.05116 11.1562 1.36396 8.85455 0.554849L7.72936 0.159259Z" fill="url(#paint0_linear_66_6)"/>
<path d="M24.3811 58.8003C27.4738 58.8003 29.9809 61.3074 29.9809 64.4001C29.9809 67.4928 27.4738 70 24.3811 70C21.2884 70 18.7812 67.4928 18.7812 64.4001C18.7812 61.3074 21.2884 58.8003 24.3811 58.8003Z" fill="white"/>
<path d="M57.9801 58.8006C61.0729 58.8006 63.58 61.3077 63.58 64.4004C63.58 67.4931 61.0729 70.0003 57.9801 70.0003C54.8874 70.0003 52.3803 67.4931 52.3803 64.4004C52.3803 61.3077 54.8874 58.8006 57.9801 58.8006Z" fill="white"/>
<path d="M31.3806 22.4407C32.9052 22.1824 34.3505 23.209 34.6088 24.7336L36.5807 36.3732C36.8389 37.8979 35.8124 39.3432 34.2877 39.6015C32.7631 39.8598 31.3178 38.8332 31.0595 37.3086L29.0876 25.6689C28.8293 24.1443 29.8559 22.6989 31.3806 22.4407Z" fill="white"/>
<path d="M51.5927 24.7336C51.851 23.209 53.2964 22.1824 54.821 22.4407C56.3456 22.6989 57.3722 24.1443 57.1139 25.6689L55.1421 37.3086C54.8838 38.8332 53.4384 39.8598 51.9138 39.6015C50.3892 39.3432 49.3626 37.8979 49.6209 36.3732L51.5927 24.7336Z" fill="white"/>
</g>
<defs>
<filter id="filter0_d_66_6" x="0" y="0" width="78.9316" height="78.0005" filterUnits="userSpaceOnUse" color-interpolation-filters="sRGB">
<feFlood flood-opacity="0" result="BackgroundImageFix"/>
<feColorMatrix in="SourceAlpha" type="matrix" values="0 0 0 0 0 0 0 0 0 0 0 0 0 0 0 0 0 0 127 0" result="hardAlpha"/>
<feOffset dy="4"/>
<feGaussianBlur stdDeviation="2"/>
<feComposite in2="hardAlpha" operator="out"/>
<feColorMatrix type="matrix" values="0 0 0 0 0 0 0 0 0 0 0 0 0 0 0 0 0 0 0.25 0"/>
<feBlend mode="normal" in2="BackgroundImageFix" result="effect1_dropShadow_66_6"/>
<feBlend mode="normal" in="SourceGraphic" in2="effect1_dropShadow_66_6" result="shape"/>
</filter>
<linearGradient id="paint0_linear_66_6" x1="4" y1="3.10328" x2="66.5089" y2="48.7658" gradientUnits="userSpaceOnUse">
<stop offset="0.225095" stop-color="#771CE0"/>
<stop offset="0.734375" stop-color="#C622FF"/>
<stop offset="1" stop-color="white"/>
</linearGradient>
</defs>
</svg>
