<svg width="96" height="78" viewBox="0 0 96 78" fill="none" xmlns="http://www.w3.org/2000/svg">
<g filter="url(#filter0_d_66_10)">
<path d="M66.5 70C80.3071 70 91.5 58.9388 91.5 45.2941C91.5 34.4799 84.4692 25.2885 74.6785 21.9405C73.2874 9.59748 62.6945 0 49.8333 0C36.0262 0 24.8333 11.0612 24.8333 24.7059C24.8333 27.7238 25.3809 30.6154 26.3832 33.2888C25.2078 33.0607 23.993 32.9412 22.75 32.9412C12.3947 32.9412 4 41.2371 4 51.4706C4 61.7041 12.3947 70 22.75 70H66.5Z" fill="url(#paint0_linear_66_10)"/>
</g>
<defs>
<filter id="filter0_d_66_10" x="0" y="0" width="95.5" height="78" filterUnits="userSpaceOnUse" color-interpolation-filters="sRGB">
<feFlood flood-opacity="0" result="BackgroundImageFix"/>
<feColorMatrix in="SourceAlpha" type="matrix" values="0 0 0 0 0 0 0 0 0 0 0 0 0 0 0 0 0 0 127 0" result="hardAlpha"/>
<feOffset dy="4"/>
<feGaussianBlur stdDeviation="2"/>
<feComposite in2="hardAlpha" operator="out"/>
<feColorMatrix type="matrix" values="0 0 0 0 0 0 0 0 0 0 0 0 0 0 0 0 0 0 0.25 0"/>
<feBlend mode="normal" in2="BackgroundImageFix" result="effect1_dropShadow_66_10"/>
<feBlend mode="normal" in="SourceGraphic" in2="effect1_dropShadow_66_10" result="shape"/>
</filter>
<linearGradient id="paint0_linear_66_10" x1="34.0787" y1="15.8597" x2="81.6577" y2="63.9855" gradientUnits="userSpaceOnUse">
<stop stop-color="#8615E2"/>
<stop offset="0.639544" stop-color="#FB29FF"/>
<stop offset="1" stop-color="white"/>
</linearGradient>
</defs>
</svg>
