<svg width="29" height="10" viewBox="0 0 29 10" fill="none" xmlns="http://www.w3.org/2000/svg">
<path d="M18.9123 9C18.3323 9 17.8903 8.844 17.5863 8.532C17.2863 8.22 17.1363 7.76 17.1363 7.152C17.1363 6.912 17.1583 6.632 17.2023 6.312H17.1303C16.9423 6.964 16.6323 7.494 16.2003 7.902C15.7683 8.306 15.2083 8.602 14.5203 8.79C13.8363 8.978 13.0043 9.072 12.0243 9.072C11.0443 9.072 10.2503 8.972 9.64234 8.772C9.03834 8.572 8.59634 8.274 8.31634 7.878C8.03634 7.482 7.89634 6.98 7.89634 6.372C7.89634 6.004 7.93034 5.624 7.99834 5.232C8.06634 4.836 8.19434 4.39 8.38234 3.894H8.51434C8.44234 4.142 8.39234 4.368 8.36434 4.572C8.33634 4.772 8.32234 4.986 8.32234 5.214C8.32234 5.57 8.46434 5.888 8.74834 6.168C9.03634 6.444 9.47234 6.662 10.0563 6.822C10.6403 6.982 11.3623 7.062 12.2223 7.062C13.7463 7.062 14.9283 6.922 15.7683 6.642C16.6123 6.362 17.1763 5.92 17.4603 5.316H17.5623C17.5383 5.524 17.5263 5.706 17.5263 5.862C17.5263 6.202 17.6603 6.476 17.9283 6.684C18.1963 6.888 18.6323 6.99 19.2363 6.99L18.9123 9ZM14.7603 3.312C14.6923 3.428 14.6083 3.626 14.5083 3.906C14.4123 4.186 14.3443 4.402 14.3043 4.554C13.8563 4.586 13.4063 4.612 12.9543 4.632C12.5063 4.648 12.1583 4.656 11.9103 4.656C11.5623 4.656 11.3063 4.616 11.1423 4.536C10.9783 4.456 10.8963 4.314 10.8963 4.11C10.8963 4.046 10.9063 3.976 10.9263 3.9C10.9463 3.82 10.9743 3.722 11.0103 3.606C11.0143 3.586 11.0343 3.52 11.0703 3.408C11.1103 3.292 11.1383 3.176 11.1543 3.06H11.2263C11.2263 3.192 11.2983 3.284 11.4423 3.336C11.5863 3.384 11.8263 3.408 12.1623 3.408C12.3943 3.408 12.7963 3.4 13.3683 3.384C13.9403 3.364 14.4043 3.34 14.7603 3.312ZM26.4824 3.702C26.5984 3.962 26.6964 4.21 26.7764 4.446C26.8604 4.678 26.9344 4.964 26.9984 5.304C27.0664 5.64 27.1004 6.006 27.1004 6.402C27.1004 7.23 26.9544 7.87 26.6624 8.322C26.3704 8.774 25.9464 9 25.3904 9C24.9464 9 24.6044 8.882 24.3644 8.646C24.1284 8.406 24.0104 8.046 24.0104 7.566C24.0104 7.458 24.0164 7.348 24.0284 7.236H23.9564C23.8804 7.82 23.6864 8.26 23.3744 8.556C23.0624 8.852 22.6804 9 22.2284 9C21.8484 9 21.5524 8.89 21.3404 8.67C21.1284 8.446 21.0224 8.114 21.0224 7.674C21.0224 7.51 21.0324 7.364 21.0524 7.236H20.9804C20.8724 7.836 20.6444 8.28 20.2964 8.568C19.9484 8.856 19.4844 9 18.9044 9C18.7964 9 18.7124 8.946 18.6524 8.838C18.5924 8.73 18.5624 8.566 18.5624 8.346C18.5624 7.902 18.6224 7.566 18.7424 7.338C18.8584 7.106 19.0224 6.99 19.2344 6.99C19.6664 6.99 20.0164 6.944 20.2844 6.852C20.5564 6.76 20.7744 6.6 20.9384 6.372C21.1064 6.144 21.2364 5.822 21.3284 5.406H21.4664C21.4464 5.61 21.3884 6.03 21.2924 6.666C21.5524 6.882 21.9504 6.99 22.4864 6.99C22.8584 6.99 23.1584 6.942 23.3864 6.846C23.6144 6.746 23.7944 6.582 23.9264 6.354C24.0624 6.126 24.1644 5.81 24.2324 5.406H24.3764C24.3564 5.59 24.3004 5.994 24.2084 6.618C24.3324 6.734 24.5084 6.826 24.7364 6.894C24.9684 6.958 25.2324 6.99 25.5284 6.99C25.7604 6.99 25.9784 6.968 26.1824 6.924C26.3904 6.876 26.5564 6.818 26.6804 6.75C26.8084 6.682 26.8724 6.616 26.8724 6.552C26.8724 6.436 26.7724 6.268 26.5724 6.048C26.3764 5.824 26.0324 5.518 25.5404 5.13C25.6764 4.926 25.8164 4.674 25.9604 4.374C26.1084 4.074 26.2284 3.782 26.3204 3.498H26.3924L26.4824 3.702ZM23.7644 2.16C23.6284 2.028 23.4604 1.886 23.2604 1.734C23.0644 1.582 22.8904 1.474 22.7384 1.41V1.338L23.4944 0.383999C23.6864 0.475999 23.8824 0.605999 24.0824 0.774C24.2824 0.938 24.4284 1.08 24.5204 1.2L23.7644 2.16ZM25.5884 2.52C25.5204 2.636 25.4364 2.826 25.3364 3.09C25.2364 3.354 25.1684 3.556 25.1324 3.696C24.6844 3.728 24.2344 3.754 23.7824 3.774C23.3344 3.79 22.9864 3.798 22.7384 3.798C22.3904 3.798 22.1344 3.758 21.9704 3.678C21.8064 3.598 21.7244 3.456 21.7244 3.252C21.7244 3.188 21.7324 3.124 21.7484 3.06C21.7684 2.992 21.7984 2.9 21.8384 2.784C21.9144 2.564 21.9624 2.392 21.9824 2.268H22.0544C22.0544 2.4 22.1264 2.492 22.2704 2.544C22.4144 2.592 22.6544 2.616 22.9904 2.616C23.1984 2.616 23.5924 2.608 24.1724 2.592C24.7564 2.572 25.2284 2.548 25.5884 2.52Z" fill="#704CC4"/>
<path d="M2.66667 4C2.66667 4 3.5 5.51505 3.5 6.5C3.5 7.48495 2.66667 9 2.66667 9" stroke="#704CC4" stroke-linecap="round"/>
<path d="M4.33301 4C4.33301 4 3.49967 5.51505 3.49967 6.5C3.49967 7.48495 4.33301 9 4.33301 9" stroke="#704CC4" stroke-linecap="round"/>
<path d="M6 5.66667C6 5.66667 4.48495 6.5 3.5 6.5C2.51505 6.5 1 5.66667 1 5.66667" stroke="#704CC4" stroke-linecap="round"/>
<path d="M6 7.3335C6 7.3335 4.48495 6.50016 3.5 6.50016C2.51505 6.50016 1 7.3335 1 7.3335" stroke="#704CC4" stroke-linecap="round"/>
</svg>
