<svg width="24" height="24" viewBox="0 0 24 24" fill="none" xmlns="http://www.w3.org/2000/svg">
<path opacity="0.4" d="M22 14V18C22 19.66 20.66 21 19 21H18C18 19.9 17.1 19 16 19C14.9 19 14 19.9 14 21H10C10 19.9 9.1 19 8 19C6.9 19 6 19.9 6 21H5C3.34 21 2 19.66 2 18V14H13C14.1 14 15 13.1 15 12V5H16.84C17.56 5 18.22 5.39001 18.58 6.01001L20.29 9H19C18.45 9 18 9.45 18 10V13C18 13.55 18.45 14 19 14H22Z" fill="#919191"/>
<path d="M8 23C9.10457 23 10 22.1046 10 21C10 19.8954 9.10457 19 8 19C6.89543 19 6 19.8954 6 21C6 22.1046 6.89543 23 8 23Z" fill="#919191"/>
<path d="M16 23C17.1046 23 18 22.1046 18 21C18 19.8954 17.1046 19 16 19C14.8954 19 14 19.8954 14 21C14 22.1046 14.8954 23 16 23Z" fill="#919191"/>
<path d="M22 12.53V14H19C18.45 14 18 13.55 18 13V10C18 9.45 18.45 9 19 9H20.29L21.74 11.54C21.91 11.84 22 12.18 22 12.53Z" fill="#919191"/>
<path d="M14 2H6C4.05 2 2.43002 3.4 2.08002 5.25H7C7.41 5.25 7.75 5.59 7.75 6C7.75 6.41 7.41 6.75 7 6.75H2V8.25H5C5.41 8.25 5.75 8.59 5.75 9C5.75 9.41 5.41 9.75 5 9.75H2V11.25H3C3.41 11.25 3.75 11.59 3.75 12C3.75 12.41 3.41 12.75 3 12.75H2V14H13C14.1 14 15 13.1 15 12V3C15 2.45 14.55 2 14 2Z" fill="#919191"/>
<path d="M2.08002 5.25H1C0.59 5.25 0.25 5.59 0.25 6C0.25 6.41 0.59 6.75 1 6.75H2V6C2 5.74 2.03002 5.49 2.08002 5.25Z" fill="#919191"/>
<path d="M1 8.25C0.59 8.25 0.25 8.59 0.25 9C0.25 9.41 0.59 9.75 1 9.75H2V8.25H1Z" fill="#919191"/>
<path d="M1 11.25C0.59 11.25 0.25 11.59 0.25 12C0.25 12.41 0.59 12.75 1 12.75H2V11.25H1Z" fill="#919191"/>
<path d="M7.90394 18.02C7.85327 18.02 7.8106 18.0027 7.77594 17.968C7.74127 17.9333 7.72394 17.8907 7.72394 17.84V15.392C7.72394 15.3413 7.74127 15.2987 7.77594 15.264C7.8106 15.2267 7.85327 15.208 7.90394 15.208H9.45994C9.50794 15.208 9.54794 15.2253 9.57994 15.26C9.6146 15.292 9.63194 15.332 9.63194 15.38C9.63194 15.428 9.6146 15.468 9.57994 15.5C9.54794 15.532 9.50794 15.548 9.45994 15.548H8.08794V16.432H9.31994C9.36794 16.432 9.40794 16.4493 9.43994 16.484C9.4746 16.516 9.49194 16.556 9.49194 16.604C9.49194 16.652 9.4746 16.692 9.43994 16.724C9.40794 16.756 9.36794 16.772 9.31994 16.772H8.08794V17.84C8.08794 17.8907 8.06927 17.9333 8.03194 17.968C7.99727 18.0027 7.9546 18.02 7.90394 18.02ZM10.1562 18.02C10.1055 18.02 10.0628 18.0027 10.0282 17.968C9.99349 17.9333 9.97616 17.8907 9.97616 17.84V16.124C9.97616 16.0733 9.99349 16.0307 10.0282 15.996C10.0628 15.9587 10.1055 15.94 10.1562 15.94C10.2068 15.94 10.2495 15.9587 10.2842 15.996C10.3215 16.0307 10.3402 16.0733 10.3402 16.124V16.296C10.4122 16.2 10.5002 16.1133 10.6042 16.036C10.7082 15.9587 10.8295 15.92 10.9682 15.92H10.9882C11.0388 15.92 11.0802 15.9373 11.1122 15.972C11.1468 16.0067 11.1642 16.0493 11.1642 16.1C11.1642 16.1507 11.1468 16.192 11.1122 16.224C11.0775 16.256 11.0335 16.272 10.9802 16.272H10.9602C10.8295 16.272 10.7108 16.3053 10.6042 16.372C10.4975 16.436 10.4095 16.52 10.3402 16.624V17.84C10.3402 17.8907 10.3215 17.9333 10.2842 17.968C10.2495 18.0027 10.2068 18.02 10.1562 18.02ZM12.3608 18.04C12.0355 18.04 11.7808 17.948 11.5968 17.764C11.4155 17.5773 11.3248 17.316 11.3248 16.98C11.3248 16.7987 11.3581 16.628 11.4248 16.468C11.4915 16.3053 11.5955 16.1733 11.7368 16.072C11.8781 15.9707 12.0595 15.92 12.2808 15.92C12.4861 15.92 12.6595 15.968 12.8008 16.064C12.9421 16.1573 13.0488 16.28 13.1208 16.432C13.1955 16.584 13.2328 16.7493 13.2328 16.928C13.2328 16.9787 13.2155 17.0213 13.1808 17.056C13.1488 17.0907 13.1048 17.108 13.0488 17.108H11.6928C11.7141 17.2867 11.7821 17.4307 11.8968 17.54C12.0115 17.6467 12.1768 17.7 12.3928 17.7C12.5128 17.7 12.6141 17.6893 12.6968 17.668C12.7795 17.644 12.8581 17.6133 12.9328 17.576C12.9541 17.5653 12.9781 17.56 13.0048 17.56C13.0475 17.56 13.0848 17.5747 13.1168 17.604C13.1488 17.6333 13.1648 17.6707 13.1648 17.716C13.1648 17.748 13.1541 17.7773 13.1328 17.804C13.1141 17.828 13.0901 17.848 13.0608 17.864C12.9728 17.9147 12.8768 17.9573 12.7728 17.992C12.6715 18.024 12.5341 18.04 12.3608 18.04ZM11.6928 16.812H12.8728C12.8648 16.6733 12.8288 16.5613 12.7648 16.476C12.7035 16.3907 12.6288 16.328 12.5408 16.288C12.4528 16.248 12.3661 16.228 12.2808 16.228C12.1955 16.228 12.1088 16.248 12.0208 16.288C11.9328 16.328 11.8581 16.3907 11.7968 16.476C11.7355 16.5613 11.7008 16.6733 11.6928 16.812ZM14.6264 18.04C14.3011 18.04 14.0464 17.948 13.8624 17.764C13.6811 17.5773 13.5904 17.316 13.5904 16.98C13.5904 16.7987 13.6238 16.628 13.6904 16.468C13.7571 16.3053 13.8611 16.1733 14.0024 16.072C14.1438 15.9707 14.3251 15.92 14.5464 15.92C14.7518 15.92 14.9251 15.968 15.0664 16.064C15.2078 16.1573 15.3144 16.28 15.3864 16.432C15.4611 16.584 15.4984 16.7493 15.4984 16.928C15.4984 16.9787 15.4811 17.0213 15.4464 17.056C15.4144 17.0907 15.3704 17.108 15.3144 17.108H13.9584C13.9798 17.2867 14.0478 17.4307 14.1624 17.54C14.2771 17.6467 14.4424 17.7 14.6584 17.7C14.7784 17.7 14.8798 17.6893 14.9624 17.668C15.0451 17.644 15.1238 17.6133 15.1984 17.576C15.2198 17.5653 15.2438 17.56 15.2704 17.56C15.3131 17.56 15.3504 17.5747 15.3824 17.604C15.4144 17.6333 15.4304 17.6707 15.4304 17.716C15.4304 17.748 15.4198 17.7773 15.3984 17.804C15.3798 17.828 15.3558 17.848 15.3264 17.864C15.2384 17.9147 15.1424 17.9573 15.0384 17.992C14.9371 18.024 14.7998 18.04 14.6264 18.04ZM13.9584 16.812H15.1384C15.1304 16.6733 15.0944 16.5613 15.0304 16.476C14.9691 16.3907 14.8944 16.328 14.8064 16.288C14.7184 16.248 14.6318 16.228 14.5464 16.228C14.4611 16.228 14.3744 16.248 14.2864 16.288C14.1984 16.328 14.1238 16.3907 14.0624 16.476C14.0011 16.5613 13.9664 16.6733 13.9584 16.812Z" fill="#919191"/>
</svg>
