<svg width="71" height="78" viewBox="0 0 71 78" fill="none" xmlns="http://www.w3.org/2000/svg">
<g filter="url(#filter0_d_66_2)">
<path d="M34.0889 70H36.9197C46.6594 70 51.5292 70 54.6955 66.8992C57.8618 63.7984 58.1857 58.712 58.8336 48.5394L59.7671 33.8815C60.1186 28.362 60.2944 25.6022 58.706 23.8533C57.1175 22.1045 54.4351 22.1045 49.0703 22.1045H21.9382C16.5734 22.1045 13.891 22.1045 12.3026 23.8533C10.7142 25.6022 10.8899 28.362 11.2415 33.8815L12.175 48.5394C12.8229 58.712 13.1468 63.7984 16.3131 66.8992C19.4794 70 24.3492 70 34.0889 70Z" fill="url(#paint0_linear_66_2)"/>
<path d="M4 15.3511C4 13.6555 5.20885 12.2809 6.70004 12.2809L16.025 12.2793C17.8778 12.2259 19.5123 10.8863 20.1427 8.90455C20.1593 8.85245 20.1784 8.78817 20.2467 8.55497L20.6485 7.18407C20.8944 6.34352 21.1086 5.61123 21.4084 4.95668C22.5926 2.37079 24.7836 0.575124 27.3155 0.11539C27.9564 -0.000979664 28.6351 -0.000487531 29.4141 7.75671e-05H41.5875C42.3665 -0.000487531 43.0452 -0.000979664 43.6861 0.11539C46.218 0.575124 48.409 2.37079 49.5932 4.95668C49.8929 5.61123 50.1072 6.34352 50.353 7.18407L50.7548 8.55497C50.8232 8.78817 50.8423 8.85245 50.8588 8.90455C51.4893 10.8863 53.448 12.2276 55.3008 12.2809H64.3009C65.7921 12.2809 67.001 13.6555 67.001 15.3511C67.001 17.0468 65.7921 18.4213 64.3009 18.4213H6.70004C5.20885 18.4213 4 17.0468 4 15.3511Z" fill="url(#paint1_linear_66_2)"/>
<path fill-rule="evenodd" clip-rule="evenodd" d="M26.4929 33.1853C27.9355 33.0335 29.2219 34.1413 29.3662 35.6598L31.1162 54.0812C31.2604 55.5997 30.2079 56.9538 28.7654 57.1056C27.3228 57.2575 26.0364 56.1496 25.8922 54.6311L24.1421 36.2097C23.9979 34.6912 25.0504 33.3372 26.4929 33.1853Z" fill="white"/>
<path fill-rule="evenodd" clip-rule="evenodd" d="M44.5156 33.1853C45.9582 33.3372 47.0107 34.6912 46.8664 36.2097L45.1164 54.6311C44.9721 56.1496 43.6858 57.2575 42.2432 57.1056C40.8006 56.9538 39.7481 55.5997 39.8924 54.0812L41.6424 35.6598C41.7867 34.1413 43.073 33.0335 44.5156 33.1853Z" fill="white"/>
</g>
<defs>
<filter id="filter0_d_66_2" x="0" y="0" width="71.001" height="78" filterUnits="userSpaceOnUse" color-interpolation-filters="sRGB">
<feFlood flood-opacity="0" result="BackgroundImageFix"/>
<feColorMatrix in="SourceAlpha" type="matrix" values="0 0 0 0 0 0 0 0 0 0 0 0 0 0 0 0 0 0 127 0" result="hardAlpha"/>
<feOffset dy="4"/>
<feGaussianBlur stdDeviation="2"/>
<feComposite in2="hardAlpha" operator="out"/>
<feColorMatrix type="matrix" values="0 0 0 0 0 0 0 0 0 0 0 0 0 0 0 0 0 0 0.25 0"/>
<feBlend mode="normal" in2="BackgroundImageFix" result="effect1_dropShadow_66_2"/>
<feBlend mode="normal" in="SourceGraphic" in2="effect1_dropShadow_66_2" result="shape"/>
</filter>
<linearGradient id="paint0_linear_66_2" x1="35.5043" y1="22.1045" x2="35.5043" y2="70" gradientUnits="userSpaceOnUse">
<stop stop-color="#7913E0"/>
<stop offset="0.682292" stop-color="#F129F5"/>
<stop offset="1" stop-color="white"/>
</linearGradient>
<linearGradient id="paint1_linear_66_2" x1="35.5005" y1="0" x2="35.5005" y2="18.4213" gradientUnits="userSpaceOnUse">
<stop offset="0.125" stop-color="#7C14E0"/>
<stop offset="1" stop-color="#AB14E0"/>
</linearGradient>
</defs>
</svg>
