<svg width="24" height="24" viewBox="0 0 24 24" fill="none" xmlns="http://www.w3.org/2000/svg">
<path opacity="0.4" d="M19.3504 5.65995L13.0604 2.27C12.4004 1.91 11.6004 1.91 10.9304 2.27L4.64041 5.65995C4.18041 5.90995 3.90039 6.39998 3.90039 6.93998C3.90039 7.47998 4.18041 7.96995 4.64041 8.21995L10.9304 11.61C11.2604 11.79 11.6304 11.88 11.9904 11.88C12.3604 11.88 12.7204 11.79 13.0504 11.61L19.3404 8.21995C19.8004 7.96995 20.0804 7.47998 20.0804 6.93998C20.0904 6.39998 19.8104 5.90995 19.3504 5.65995Z" fill="#919191"/>
<path opacity="0.4" d="M9.89972 12.7899L4.04971 9.85989C3.59971 9.62989 3.07972 9.65989 2.64972 9.91989C2.21972 10.1799 1.96973 10.6399 1.96973 11.1399V16.6699C1.96973 17.6299 2.49971 18.4899 3.35971 18.9199L9.20972 21.8399C9.40972 21.9399 9.62973 21.9899 9.84973 21.9899C10.1097 21.9899 10.3697 21.9199 10.5997 21.7699C11.0297 21.5099 11.2797 21.0499 11.2797 20.5499V15.0199C11.2897 14.0799 10.7597 13.2199 9.89972 12.7899Z" fill="#919191"/>
<path opacity="0.4" d="M22.03 11.1502V15.7401C22.02 15.7301 22.01 15.7101 22 15.7001C22 15.6901 21.99 15.6801 21.98 15.6701C21.94 15.6101 21.89 15.5501 21.84 15.5001C21.83 15.4901 21.82 15.4702 21.81 15.4602C21 14.5602 19.81 14.0001 18.5 14.0001C17.24 14.0001 16.09 14.5201 15.27 15.3601C14.48 16.1701 14 17.2801 14 18.5001C14 19.3401 14.24 20.1401 14.65 20.8201C14.82 21.1101 15.03 21.3701 15.26 21.6101L14.79 21.8501C14.59 21.9501 14.37 22.0001 14.15 22.0001C13.89 22.0001 13.63 21.9302 13.39 21.7802C12.97 21.5202 12.71 21.0601 12.71 20.5601V15.0401C12.71 14.0801 13.24 13.2201 14.1 12.7901L19.95 9.87013C20.4 9.64013 20.92 9.66012 21.35 9.93012C21.77 10.1901 22.03 10.6502 22.03 11.1502Z" fill="#919191"/>
<path d="M21.98 15.65C21.16 14.64 19.91 14 18.5 14C17.44 14 16.46 14.37 15.69 14.99C14.65 15.81 14 17.08 14 18.5C14 19.91 14.64 21.16 15.65 21.98C16.42 22.62 17.42 23 18.5 23C19.64 23 20.67 22.57 21.47 21.88C22.4 21.05 23 19.85 23 18.5C23 17.42 22.62 16.42 21.98 15.65ZM19.53 18.78C19.53 19.04 19.39 19.29 19.17 19.42L17.76 20.26C17.64 20.33 17.51 20.37 17.37 20.37C17.12 20.37 16.87 20.24 16.73 20.01C16.52 19.65 16.63 19.19 16.99 18.98L18.03 18.36V17.1C18.03 16.69 18.37 16.35 18.78 16.35C19.19 16.35 19.53 16.69 19.53 17.1V18.78Z" fill="#919191"/>
</svg>
