<svg width="24" height="24" viewBox="0 0 24 24" fill="none" xmlns="http://www.w3.org/2000/svg">
<path d="M21.6804 15.3202C20.7904 14.4302 19.6104 13.9802 18.4404 14.0002C17.3104 14.0102 16.1804 14.4602 15.3204 15.3202C14.7204 15.9102 14.3304 16.6501 14.1404 17.4201C14.0304 17.8401 13.9904 18.2702 14.0204 18.7002V18.7502C14.0204 18.8202 14.0304 18.8802 14.0404 18.9602C14.0404 18.9602 14.0404 18.9601 14.0504 18.9701V19.0002C14.1404 19.9802 14.5604 20.9301 15.3204 21.6801C16.4804 22.8401 18.1104 23.2301 19.5804 22.8601C20.0204 22.7501 20.4504 22.5702 20.8504 22.3302C21.1504 22.1602 21.4304 21.9401 21.6804 21.6801C22.4304 20.9301 22.8604 19.9801 22.9504 18.9901C22.9604 18.9901 22.9604 18.9702 22.9604 18.9602C22.9804 18.8902 22.9804 18.8101 22.9804 18.7401C22.9804 18.7301 22.9904 18.7102 22.9904 18.6902C23.0504 17.4802 22.6104 16.2402 21.6804 15.3202ZM20.2304 20.2102C19.9404 20.5002 19.4704 20.5002 19.1704 20.2102L18.5104 19.5501L17.8304 20.2301C17.5304 20.5301 17.0604 20.5301 16.7704 20.2301C16.4704 19.9401 16.4704 19.4701 16.7704 19.1701L17.4504 18.4901L16.7904 17.8302C16.5004 17.5302 16.5004 17.0602 16.7904 16.7702C17.0904 16.4702 17.5604 16.4702 17.8604 16.7702L18.5104 17.4301L19.1404 16.7901C19.4404 16.5001 19.9104 16.5001 20.2104 16.7901C20.5004 17.0901 20.5004 17.5601 20.2104 17.8601L19.5704 18.4901L20.2304 19.1402C20.5304 19.4402 20.5304 19.9102 20.2304 20.2102Z" fill="#919191"/>
<path opacity="0.4" d="M19.3504 5.65995L13.0604 2.27C12.4004 1.91 11.6004 1.91 10.9304 2.27L4.64041 5.65995C4.18041 5.90995 3.90039 6.39998 3.90039 6.93998C3.90039 7.47998 4.18041 7.96995 4.64041 8.21995L10.9304 11.61C11.2604 11.79 11.6304 11.88 11.9904 11.88C12.3504 11.88 12.7204 11.79 13.0504 11.61L19.3404 8.21995C19.8004 7.96995 20.0804 7.47998 20.0804 6.93998C20.1004 6.39998 19.8104 5.90995 19.3504 5.65995Z" fill="#919191"/>
<path opacity="0.4" d="M9.89972 12.7899L4.04971 9.85989C3.59971 9.62989 3.07972 9.65989 2.64972 9.91989C2.21972 10.1799 1.96973 10.6399 1.96973 11.1399V16.6699C1.96973 17.6299 2.49971 18.4899 3.35971 18.9199L9.20972 21.8399C9.40972 21.9399 9.62973 21.9899 9.84973 21.9899C10.1097 21.9899 10.3697 21.9199 10.5997 21.7699C11.0297 21.5099 11.2797 21.0499 11.2797 20.5499V15.0199C11.2897 14.0799 10.7597 13.2199 9.89972 12.7899Z" fill="#919191"/>
<path opacity="0.4" d="M22.03 11.1502V15.7401C22.02 15.7301 22.01 15.7101 22 15.7001C22 15.6901 21.99 15.6801 21.98 15.6701C21.94 15.6101 21.89 15.5501 21.84 15.5001C21.83 15.4901 21.82 15.4702 21.81 15.4602C21 14.5602 19.81 14.0001 18.5 14.0001C17.24 14.0001 16.09 14.5201 15.27 15.3601C14.48 16.1701 14 17.2801 14 18.5001C14 19.3401 14.24 20.1401 14.65 20.8201C14.82 21.1101 15.03 21.3701 15.26 21.6101L14.79 21.8501C14.59 21.9501 14.37 22.0001 14.15 22.0001C13.89 22.0001 13.63 21.9302 13.39 21.7802C12.97 21.5202 12.71 21.0601 12.71 20.5601V15.0401C12.71 14.0801 13.24 13.2201 14.1 12.7901L19.95 9.87013C20.4 9.64013 20.92 9.66012 21.35 9.93012C21.77 10.1901 22.03 10.6502 22.03 11.1502Z" fill="#919191"/>
</svg>
