<svg width="24" height="24" viewBox="0 0 24 24" fill="none" xmlns="http://www.w3.org/2000/svg">
<path opacity="0.4" d="M20.6198 8.7C19.5798 4.07 15.5398 2 11.9998 2C11.9998 2 11.9997 2 11.9897 2C8.45975 2 4.42975 4.07 3.37975 8.69C2.19975 13.85 5.35975 18.22 8.21975 20.98C9.27975 22 10.6398 22.51 11.9998 22.51C13.3598 22.51 14.7198 22 15.7698 20.98C18.6298 18.22 21.7898 13.86 20.6198 8.7Z" fill="#919191"/>
<path d="M14.75 10.25H12.75V8.25C12.75 7.84 12.41 7.5 12 7.5C11.59 7.5 11.25 7.84 11.25 8.25V10.25H9.25C8.84 10.25 8.5 10.59 8.5 11C8.5 11.41 8.84 11.75 9.25 11.75H11.25V13.75C11.25 14.16 11.59 14.5 12 14.5C12.41 14.5 12.75 14.16 12.75 13.75V11.75H14.75C15.16 11.75 15.5 11.41 15.5 11C15.5 10.59 15.16 10.25 14.75 10.25Z" fill="#919191"/>
</svg>
