<svg width="24" height="24" viewBox="0 0 24 24" fill="none" xmlns="http://www.w3.org/2000/svg">
<path opacity="0.4" d="M21.0901 21.5C21.0901 21.78 20.8701 22 20.5901 22H3.41016C3.13016 22 2.91016 21.78 2.91016 21.5C2.91016 17.36 6.99015 14 12.0002 14C13.0302 14 14.0302 14.14 14.9502 14.41C14.3602 15.11 14.0002 16.02 14.0002 17C14.0002 17.75 14.2101 18.46 14.5801 19.06C14.7801 19.4 15.0401 19.71 15.3401 19.97C16.0401 20.61 16.9702 21 18.0002 21C19.1202 21 20.1302 20.54 20.8502 19.8C21.0102 20.34 21.0901 20.91 21.0901 21.5Z" fill="#FF3737"/>
<path d="M21.8797 16.0398C21.7797 15.6498 21.6197 15.2598 21.3997 14.9098C21.2497 14.6498 21.0497 14.3998 20.8297 14.1698C20.1097 13.4498 19.1697 13.0598 18.2097 13.0098C17.1197 12.9398 16.0098 13.3398 15.1698 14.1698C14.3798 14.9598 13.9797 16.0098 13.9997 17.0598C14.0097 18.0598 14.4098 19.0598 15.1698 19.8298C15.6998 20.3598 16.3497 20.7098 17.0397 20.8698C17.4197 20.9698 17.8197 21.0098 18.2197 20.9798C19.1697 20.9398 20.0997 20.5598 20.8297 19.8298C21.8597 18.7998 22.2097 17.3498 21.8797 16.0398ZM19.5997 18.5998C19.3097 18.8898 18.8297 18.8898 18.5397 18.5998L17.9897 18.0498L17.4597 18.5798C17.1697 18.8698 16.6897 18.8698 16.3997 18.5798C16.1097 18.2798 16.1097 17.8098 16.3997 17.5198L16.9297 16.9898L16.4198 16.4898C16.1298 16.1898 16.1298 15.7198 16.4198 15.4198C16.7198 15.1298 17.1897 15.1298 17.4897 15.4198L17.9897 15.9298L18.5197 15.3998C18.8097 15.1098 19.2797 15.1098 19.5797 15.3998C19.8697 15.6898 19.8697 16.1698 19.5797 16.4598L19.0497 16.9898L19.5997 17.5398C19.8897 17.8298 19.8897 18.3098 19.5997 18.5998Z" fill="#FF3737"/>
<path d="M12 12C14.7614 12 17 9.76142 17 7C17 4.23858 14.7614 2 12 2C9.23858 2 7 4.23858 7 7C7 9.76142 9.23858 12 12 12Z" fill="#FF3737"/>
</svg>
